<mxfile host="app.diagrams.net" modified="2021-02-02T09:27:27.152Z" agent="5.0 (Windows NT 10.0; Win64; x64) AppleWebKit/537.36 (KHTML, like Gecko) Chrome/88.0.4324.96 Safari/537.36 Edg/88.0.705.50" etag="XaGMXPBzNJ3Lh5vUPIcB" version="14.2.9" type="github">
  <diagram id="ra6P749hqLVPO1-lfmD6" name="Page-1">
    <mxGraphModel dx="1550" dy="868" grid="1" gridSize="10" guides="1" tooltips="1" connect="1" arrows="1" fold="1" page="1" pageScale="1" pageWidth="850" pageHeight="1100" math="0" shadow="0">
      <root>
        <mxCell id="0" />
        <mxCell id="1" parent="0" />
        <mxCell id="66OBbh3skSZ1aLQYBgx9-12" value="" style="aspect=fixed;html=1;points=[];align=center;image;fontSize=12;image=img/lib/mscae/VirtualMachineWindows.svg;" parent="1" vertex="1">
          <mxGeometry x="425" y="330" width="50" height="46" as="geometry" />
        </mxCell>
        <mxCell id="66OBbh3skSZ1aLQYBgx9-14" style="edgeStyle=orthogonalEdgeStyle;rounded=0;orthogonalLoop=1;jettySize=auto;html=1;" parent="1" source="66OBbh3skSZ1aLQYBgx9-13" target="66OBbh3skSZ1aLQYBgx9-12" edge="1">
          <mxGeometry relative="1" as="geometry" />
        </mxCell>
        <mxCell id="66OBbh3skSZ1aLQYBgx9-16" style="edgeStyle=orthogonalEdgeStyle;rounded=0;orthogonalLoop=1;jettySize=auto;html=1;entryX=0.464;entryY=0.03;entryDx=0;entryDy=0;entryPerimeter=0;" parent="1" source="66OBbh3skSZ1aLQYBgx9-13" target="66OBbh3skSZ1aLQYBgx9-15" edge="1">
          <mxGeometry relative="1" as="geometry" />
        </mxCell>
        <mxCell id="66OBbh3skSZ1aLQYBgx9-13" value="" style="aspect=fixed;html=1;points=[];align=center;image;fontSize=12;image=img/lib/mscae/Azure_Repos.svg;" parent="1" vertex="1">
          <mxGeometry x="540" y="190" width="45" height="50" as="geometry" />
        </mxCell>
        <mxCell id="66OBbh3skSZ1aLQYBgx9-15" value="" style="aspect=fixed;html=1;points=[];align=center;image;fontSize=12;image=img/lib/mscae/VirtualMachineWindows.svg;" parent="1" vertex="1">
          <mxGeometry x="630" y="320" width="50" height="46" as="geometry" />
        </mxCell>
        <mxCell id="auppxmPs7ViLMbjzSdZs-2" value="" style="aspect=fixed;html=1;points=[];align=center;image;fontSize=12;image=img/lib/mscae/Virtual_Network.svg;" vertex="1" parent="1">
          <mxGeometry x="510" y="321.20000000000005" width="80" height="44.8" as="geometry" />
        </mxCell>
      </root>
    </mxGraphModel>
  </diagram>
</mxfile>
